<svg xmlns="http://www.w3.org/2000/svg" xmlns:xlink="http://www.w3.org/1999/xlink" width="3300" zoomAndPan="magnify" viewBox="0 0 2475 599.999999" height="800" preserveAspectRatio="xMidYMid meet" version="1.0"><defs><clipPath id="a6c1162de7"><path d="M 0.683594 62.46875 L 2474.316406 62.46875 L 2474.316406 537.449219 L 0.683594 537.449219 Z M 0.683594 62.46875 " clip-rule="nonzero"/></clipPath><clipPath id="4724cb3e45"><path d="M 1827 403 L 1991 403 L 1991 536.925781 L 1827 536.925781 Z M 1827 403 " clip-rule="nonzero"/></clipPath><clipPath id="b853594bb1"><path d="M 1851.371094 403.484375 L 1990.617188 436.5 L 1966.851562 536.808594 L 1827.605469 503.796875 Z M 1851.371094 403.484375 " clip-rule="nonzero"/></clipPath><clipPath id="976b63c2e1"><path d="M 1827 403 L 1991 403 L 1991 536.925781 L 1827 536.925781 Z M 1827 403 " clip-rule="nonzero"/></clipPath><clipPath id="ec51b5fbf3"><path d="M 1851.371094 403.484375 L 1990.617188 436.5 L 1966.871094 536.734375 L 1827.625 503.722656 Z M 1851.371094 403.484375 " clip-rule="nonzero"/></clipPath><clipPath id="fd27d7046d"><path d="M 1851.371094 403.484375 L 1990.617188 436.5 L 1966.851562 536.808594 L 1827.605469 503.796875 Z M 1851.371094 403.484375 " clip-rule="nonzero"/></clipPath><clipPath id="364f039ece"><path d="M 1848 416.480469 L 1900 416.480469 L 1900 473 L 1848 473 Z M 1848 416.480469 " clip-rule="nonzero"/></clipPath><clipPath id="fa05a61751"><path d="M 1859.398438 416.503906 L 1899.507812 426.011719 L 1888.410156 472.835938 L 1848.304688 463.328125 Z M 1859.398438 416.503906 " clip-rule="nonzero"/></clipPath><clipPath id="906d5c7fba"><path d="M 1848 416.480469 L 1900 416.480469 L 1900 473 L 1848 473 Z M 1848 416.480469 " clip-rule="nonzero"/></clipPath><clipPath id="891c6dec33"><path d="M 1859.398438 416.503906 L 1899.65625 426.050781 L 1888.539062 472.984375 L 1848.28125 463.441406 Z M 1859.398438 416.503906 " clip-rule="nonzero"/></clipPath><clipPath id="af32e47487"><path d="M 1859.398438 416.503906 L 1899.507812 426.011719 L 1888.410156 472.835938 L 1848.304688 463.328125 Z M 1859.398438 416.503906 " clip-rule="nonzero"/></clipPath><clipPath id="f81a34b297"><path d="M 434.484375 81.324219 L 605 81.324219 L 605 227.953125 L 434.484375 227.953125 Z M 434.484375 81.324219 " clip-rule="nonzero"/></clipPath><clipPath id="cace2426c2"><path d="M 434.882812 130.839844 L 569.375 81.972656 L 604.550781 178.859375 L 470.058594 227.730469 Z M 434.882812 130.839844 " clip-rule="nonzero"/></clipPath><clipPath id="ddea524854"><path d="M 434.484375 81.324219 L 605 81.324219 L 605 227.953125 L 434.484375 227.953125 Z M 434.484375 81.324219 " clip-rule="nonzero"/></clipPath><clipPath id="44f7980280"><path d="M 434.882812 130.839844 L 569.375 81.972656 L 604.527344 178.785156 L 470.035156 227.65625 Z M 434.882812 130.839844 " clip-rule="nonzero"/></clipPath><clipPath id="c129216250"><path d="M 434.882812 130.839844 L 569.375 81.972656 L 604.550781 178.859375 L 470.058594 227.730469 Z M 434.882812 130.839844 " clip-rule="nonzero"/></clipPath><clipPath id="091e24003d"><path d="M 448.097656 123.21875 L 504 123.21875 L 504 182.917969 L 448.097656 182.917969 Z M 448.097656 123.21875 " clip-rule="nonzero"/></clipPath><clipPath id="549d38a29a"><path d="M 448.734375 137.3125 L 487.472656 123.238281 L 503.890625 168.460938 L 465.15625 182.539062 Z M 448.734375 137.3125 " clip-rule="nonzero"/></clipPath><clipPath id="df14efa30b"><path d="M 448.097656 123.21875 L 504 123.21875 L 504 182.917969 L 448.097656 182.917969 Z M 448.097656 123.21875 " clip-rule="nonzero"/></clipPath><clipPath id="b61fc25d20"><path d="M 448.734375 137.3125 L 487.617188 123.183594 L 504.078125 168.519531 L 465.191406 182.648438 Z M 448.734375 137.3125 " clip-rule="nonzero"/></clipPath><clipPath id="e2e7c0c959"><path d="M 448.734375 137.3125 L 487.472656 123.238281 L 503.890625 168.460938 L 465.15625 182.539062 Z M 448.734375 137.3125 " clip-rule="nonzero"/></clipPath><clipPath id="94eb02134f"><path d="M 827.09375 403 L 990.417969 403 L 990.417969 536.925781 L 827.09375 536.925781 Z M 827.09375 403 " clip-rule="nonzero"/></clipPath><clipPath id="9f924559a5"><path d="M 827.421875 436.234375 L 966.726562 403.484375 L 990.304688 503.839844 L 850.992188 536.59375 Z M 827.421875 436.234375 " clip-rule="nonzero"/></clipPath><clipPath id="78e7fe5e6c"><path d="M 827.09375 403 L 990.417969 403 L 990.417969 536.925781 L 827.09375 536.925781 Z M 827.09375 403 " clip-rule="nonzero"/></clipPath><clipPath id="91856b8e7d"><path d="M 827.421875 436.234375 L 966.726562 403.484375 L 990.285156 503.765625 L 850.976562 536.515625 Z M 827.421875 436.234375 " clip-rule="nonzero"/></clipPath><clipPath id="5c68188312"><path d="M 827.421875 436.234375 L 966.726562 403.484375 L 990.304688 503.839844 L 850.992188 536.59375 Z M 827.421875 436.234375 " clip-rule="nonzero"/></clipPath><clipPath id="a4b85c242b"><path d="M 840 434.285156 L 892 434.285156 L 892 491.890625 L 840 491.890625 Z M 840 434.285156 " clip-rule="nonzero"/></clipPath><clipPath id="0e58f5046b"><path d="M 840.417969 444.289062 L 880.546875 434.855469 L 891.546875 481.699219 L 851.421875 491.132812 Z M 840.417969 444.289062 " clip-rule="nonzero"/></clipPath><clipPath id="fc91a3a1b5"><path d="M 840 434.285156 L 892 434.285156 L 892 491.890625 L 840 491.890625 Z M 840 434.285156 " clip-rule="nonzero"/></clipPath><clipPath id="645586fe06"><path d="M 840.417969 444.289062 L 880.695312 434.820312 L 891.726562 481.78125 L 851.449219 491.25 Z M 840.417969 444.289062 " clip-rule="nonzero"/></clipPath><clipPath id="3d96b32d20"><path d="M 840.417969 444.289062 L 880.546875 434.855469 L 891.546875 481.699219 L 851.421875 491.132812 Z M 840.417969 444.289062 " clip-rule="nonzero"/></clipPath><clipPath id="538ff1ae7e"><path d="M 2032.136719 62.46875 L 2193 62.46875 L 2193 191 L 2032.136719 191 Z M 2032.136719 62.46875 " clip-rule="nonzero"/></clipPath><clipPath id="ca33068e35"><path d="M 2052.167969 62.46875 L 2192.347656 89.433594 L 2172.9375 190.417969 L 2032.761719 163.449219 Z M 2052.167969 62.46875 " clip-rule="nonzero"/></clipPath><clipPath id="ef4fa6f2b6"><path d="M 2032.136719 62.46875 L 2193 62.46875 L 2193 191 L 2032.136719 191 Z M 2032.136719 62.46875 " clip-rule="nonzero"/></clipPath><clipPath id="ef18ba1bab"><path d="M 2052.167969 62.46875 L 2192.347656 89.433594 L 2172.949219 190.339844 L 2032.777344 163.378906 Z M 2052.167969 62.46875 " clip-rule="nonzero"/></clipPath><clipPath id="b3c6a3126c"><path d="M 2052.167969 62.46875 L 2192.347656 89.433594 L 2172.9375 190.417969 L 2032.761719 163.449219 Z M 2052.167969 62.46875 " clip-rule="nonzero"/></clipPath><clipPath id="92dae5e974"><path d="M 2051 75.039062 L 2101.238281 75.039062 L 2101.238281 130.546875 L 2051 130.546875 Z M 2051 75.039062 " clip-rule="nonzero"/></clipPath><clipPath id="b2262d330c"><path d="M 2060.726562 75.101562 L 2101.097656 82.867188 L 2092.039062 130.003906 L 2051.664062 122.238281 Z M 2060.726562 75.101562 " clip-rule="nonzero"/></clipPath><clipPath id="c7b9497eb3"><path d="M 2051 75.039062 L 2101.238281 75.039062 L 2101.238281 130.546875 L 2051 130.546875 Z M 2051 75.039062 " clip-rule="nonzero"/></clipPath><clipPath id="187e7f3f53"><path d="M 2060.726562 75.101562 L 2101.253906 82.898438 L 2092.171875 130.148438 L 2051.640625 122.355469 Z M 2060.726562 75.101562 " clip-rule="nonzero"/></clipPath><clipPath id="775055f884"><path d="M 2060.726562 75.101562 L 2101.097656 82.867188 L 2092.039062 130.003906 L 2051.664062 122.238281 Z M 2060.726562 75.101562 " clip-rule="nonzero"/></clipPath></defs><rect x="-247.5" width="2970" fill="#ffffff" y="-60" height="719.999999" fill-opacity="1"/><rect x="-247.5" width="2970" fill="#ffffff" y="-60" height="719.999999" fill-opacity="1"/><g clip-path="url(#a6c1162de7)"><path fill="#ffffff" d="M 0.683594 62.46875 L 2474.316406 62.46875 L 2474.316406 537.449219 L 0.683594 537.449219 Z M 0.683594 62.46875 " fill-opacity="1" fill-rule="nonzero"/></g><g clip-path="url(#4724cb3e45)"><g clip-path="url(#b853594bb1)"><path fill="#ffffff" d="M 1851.371094 403.484375 L 1990.8125 436.542969 L 1967.046875 536.859375 L 1827.605469 503.796875 Z M 1851.371094 403.484375 " fill-opacity="1" fill-rule="nonzero"/></g></g><g clip-path="url(#976b63c2e1)"><g clip-path="url(#ec51b5fbf3)"><g clip-path="url(#fd27d7046d)"><path stroke-linecap="butt" transform="matrix(0.302708, 0.0717676, -0.0717393, 0.302827, 1851.371058, 403.486107)" fill="none" stroke-linejoin="miter" d="M -0.00117217 -0.00544092 L 460.001992 0.00216386 L 459.993589 331.244314 L -0.00668078 331.248922 Z M -0.00117217 -0.00544092 " stroke="#047319" stroke-width="40.362999" stroke-opacity="1" stroke-miterlimit="4"/></g></g></g><g clip-path="url(#364f039ece)"><g clip-path="url(#fa05a61751)"><path fill="#ffffff" d="M 1859.398438 416.503906 L 1899.507812 426.011719 L 1888.402344 472.878906 L 1848.296875 463.367188 Z M 1859.398438 416.503906 " fill-opacity="1" fill-rule="nonzero"/></g></g><g clip-path="url(#906d5c7fba)"><g clip-path="url(#891c6dec33)"><g clip-path="url(#af32e47487)"><path stroke-linecap="butt" transform="matrix(0.302708, 0.0717676, -0.0717393, 0.302827, 1859.397234, 416.503274)" fill="none" stroke-linejoin="miter" d="M 0.00423297 0.00108389 L 132.504966 -0.00369374 L 132.489086 154.623528 L 0.000571144 154.62541 Z M 0.00423297 0.00108389 " stroke="#047319" stroke-width="30.271999" stroke-opacity="1" stroke-miterlimit="4"/></g></g></g><path stroke-linecap="butt" transform="matrix(0.302708, 0.0717676, -0.0717393, 0.302827, 1905.648424, 435.171553)" fill="none" stroke-linejoin="miter" d="M -0.00314967 2.001194 L 226.054523 1.998024 " stroke="#047319" stroke-width="4" stroke-opacity="1" stroke-miterlimit="4"/><path stroke-linecap="butt" transform="matrix(0.302708, 0.0717676, -0.0717393, 0.302827, 1901.817928, 451.341241)" fill="none" stroke-linejoin="miter" d="M -0.00633116 2.009172 L 226.048447 1.993789 " stroke="#047319" stroke-width="4" stroke-opacity="1" stroke-miterlimit="4"/><path stroke-linecap="butt" transform="matrix(0.302708, 0.0717676, -0.0717393, 0.302827, 1897.987312, 467.510976)" fill="none" stroke-linejoin="miter" d="M 0.0123689 1.998907 L 226.060718 2.010846 " stroke="#047319" stroke-width="4" stroke-opacity="1" stroke-miterlimit="4"/><path stroke-linecap="butt" transform="matrix(0.302708, 0.0717676, -0.0717393, 0.302827, 1846.206018, 472.185624)" fill="none" stroke-linejoin="miter" d="M 0.00112762 2.005314 L 384.559709 1.988487 " stroke="#047319" stroke-width="4" stroke-opacity="1" stroke-miterlimit="4"/><path stroke-linecap="butt" transform="matrix(0.302708, 0.0717676, -0.0717393, 0.302827, 1843.871059, 488.583311)" fill="none" stroke-linejoin="miter" d="M -0.00137427 2.008384 L 384.557207 1.991557 " stroke="#047319" stroke-width="4" stroke-opacity="1" stroke-miterlimit="4"/><g clip-path="url(#f81a34b297)"><g clip-path="url(#cace2426c2)"><path fill="#ffffff" d="M 434.882812 130.839844 L 569.5625 81.902344 L 604.738281 178.792969 L 470.058594 227.730469 Z M 434.882812 130.839844 " fill-opacity="1" fill-rule="nonzero"/></g></g><g clip-path="url(#ddea524854)"><g clip-path="url(#44f7980280)"><g clip-path="url(#c129216250)"><path stroke-linecap="butt" transform="matrix(0.292375, -0.106234, 0.106193, 0.29249, 434.882935, 130.840342)" fill="none" stroke-linejoin="miter" d="M 0.000176994 -0.00163788 L 459.999113 0.000249199 L 459.998176 331.248005 L -0.00504554 331.257917 Z M 0.000176994 -0.00163788 " stroke="#004aad" stroke-width="40.367001" stroke-opacity="1" stroke-miterlimit="4"/></g></g></g><g clip-path="url(#091e24003d)"><g clip-path="url(#549d38a29a)"><path fill="#ffffff" d="M 448.734375 137.3125 L 487.472656 123.238281 L 503.90625 168.5 L 465.167969 182.578125 Z M 448.734375 137.3125 " fill-opacity="1" fill-rule="nonzero"/></g></g><g clip-path="url(#df14efa30b)"><g clip-path="url(#b61fc25d20)"><g clip-path="url(#e2e7c0c959)"><path stroke-linecap="butt" transform="matrix(0.292375, -0.106234, 0.106193, 0.29249, 448.733214, 137.312709)" fill="none" stroke-linejoin="miter" d="M 0.00373752 0.000641774 L 132.497637 0.0047424 L 132.495355 154.61663 L 0.00897354 154.628615 Z M 0.00373752 0.000641774 " stroke="#004aad" stroke-width="30.275" stroke-opacity="1" stroke-miterlimit="4"/></g></g></g><path stroke-linecap="butt" transform="matrix(0.292375, -0.106234, 0.106193, 0.29249, 497.632012, 127.518677)" fill="none" stroke-linejoin="miter" d="M 0.000341979 1.992964 L 226.055023 2.003496 " stroke="#004aad" stroke-width="4" stroke-opacity="1" stroke-miterlimit="4"/><path stroke-linecap="butt" transform="matrix(0.292375, -0.106234, 0.106193, 0.29249, 503.302252, 143.136429)" fill="none" stroke-linejoin="miter" d="M 0.00161718 2.004852 L 226.060584 2.003585 " stroke="#004aad" stroke-width="4" stroke-opacity="1" stroke-miterlimit="4"/><path stroke-linecap="butt" transform="matrix(0.292375, -0.106234, 0.106193, 0.29249, 508.97254, 158.754169)" fill="none" stroke-linejoin="miter" d="M -0.00478379 2.000638 L 226.054183 1.999371 " stroke="#004aad" stroke-width="4" stroke-opacity="1" stroke-miterlimit="4"/><path stroke-linecap="butt" transform="matrix(0.292375, -0.106234, 0.106193, 0.29249, 468.259349, 191.0943)" fill="none" stroke-linejoin="miter" d="M 0.00233799 2.002244 L 384.546753 1.989946 " stroke="#004aad" stroke-width="4" stroke-opacity="1" stroke-miterlimit="4"/><path stroke-linecap="butt" transform="matrix(0.292375, -0.106234, 0.106193, 0.29249, 475.304813, 206.08132)" fill="none" stroke-linejoin="miter" d="M 0.00521897 2.007602 L 384.549634 1.995304 " stroke="#004aad" stroke-width="4" stroke-opacity="1" stroke-miterlimit="4"/><g clip-path="url(#94eb02134f)"><g clip-path="url(#9f924559a5)"><path fill="#ffffff" d="M 827.421875 436.234375 L 966.921875 403.441406 L 990.496094 503.796875 L 850.992188 536.59375 Z M 827.421875 436.234375 " fill-opacity="1" fill-rule="nonzero"/></g></g><g clip-path="url(#78e7fe5e6c)"><g clip-path="url(#91856b8e7d)"><g clip-path="url(#5c68188312)"><path stroke-linecap="butt" transform="matrix(0.302843, -0.0711936, 0.0711656, 0.302963, 827.421422, 436.234729)" fill="none" stroke-linejoin="miter" d="M 0.00167825 -0.000775366 L 459.992579 -0.00596479 L 460.007386 331.244658 L -0.0108336 331.256321 Z M 0.00167825 -0.000775366 " stroke="#c90404" stroke-width="40.362999" stroke-opacity="1" stroke-miterlimit="4"/></g></g></g><g clip-path="url(#a4b85c242b)"><g clip-path="url(#0e58f5046b)"><path fill="#ffffff" d="M 840.417969 444.289062 L 880.546875 434.855469 L 891.558594 481.738281 L 851.429688 491.175781 Z M 840.417969 444.289062 " fill-opacity="1" fill-rule="nonzero"/></g></g><g clip-path="url(#fc91a3a1b5)"><g clip-path="url(#645586fe06)"><g clip-path="url(#3d96b32d20)"><path stroke-linecap="butt" transform="matrix(0.302843, -0.0711936, 0.0711656, 0.302963, 840.418141, 444.288721)" fill="none" stroke-linejoin="miter" d="M -0.000791189 0.000941135 L 132.506412 0.00119432 L 132.495312 154.617548 L 0.000332222 154.620167 Z M -0.000791189 0.000941135 " stroke="#c90404" stroke-width="30.271999" stroke-opacity="1" stroke-miterlimit="4"/></g></g></g><path stroke-linecap="butt" transform="matrix(0.302843, -0.0711936, 0.0711656, 0.302963, 890.132603, 440.300881)" fill="none" stroke-linejoin="miter" d="M -0.00427526 1.997159 L 226.056263 1.998226 " stroke="#c90404" stroke-width="4" stroke-opacity="1" stroke-miterlimit="4"/><path stroke-linecap="butt" transform="matrix(0.302843, -0.0711936, 0.0711656, 0.302963, 893.932571, 456.477841)" fill="none" stroke-linejoin="miter" d="M -0.000863963 1.994072 L 226.056803 2.007358 " stroke="#c90404" stroke-width="4" stroke-opacity="1" stroke-miterlimit="4"/><path stroke-linecap="butt" transform="matrix(0.302843, -0.0711936, 0.0711656, 0.302963, 897.732491, 472.654728)" fill="none" stroke-linejoin="miter" d="M 0.00264462 1.991246 L 226.060312 2.004532 " stroke="#c90404" stroke-width="4" stroke-opacity="1" stroke-miterlimit="4"/><path stroke-linecap="butt" transform="matrix(0.302843, -0.0711936, 0.0711656, 0.302963, 853.503589, 499.995935)" fill="none" stroke-linejoin="miter" d="M -0.00412713 1.998049 L 384.555172 1.995643 " stroke="#c90404" stroke-width="4" stroke-opacity="1" stroke-miterlimit="4"/><path stroke-linecap="butt" transform="matrix(0.302843, -0.0711936, 0.0711656, 0.302963, 858.743413, 515.707846)" fill="none" stroke-linejoin="miter" d="M 0.00111403 2.00896 L 384.54819 2.003681 " stroke="#c90404" stroke-width="4" stroke-opacity="1" stroke-miterlimit="4"/><g clip-path="url(#538ff1ae7e)"><g clip-path="url(#ca33068e35)"><path fill="#ffffff" d="M 2052.167969 62.46875 L 2192.542969 89.472656 L 2173.132812 190.453125 L 2032.761719 163.449219 Z M 2052.167969 62.46875 " fill-opacity="1" fill-rule="nonzero"/></g></g><g clip-path="url(#ef4fa6f2b6)"><g clip-path="url(#ef18ba1bab)"><g clip-path="url(#b3c6a3126c)"><path stroke-linecap="butt" transform="matrix(0.304729, 0.0586161, -0.058593, 0.304849, 2052.17053, 62.470841)" fill="none" stroke-linejoin="miter" d="M -0.00937639 -0.00505735 L 460.005792 -0.0032901 L 460.003885 331.257616 L -0.00129797 331.241115 Z M -0.00937639 -0.00505735 " stroke="#ffc000" stroke-width="40.464001" stroke-opacity="1" stroke-miterlimit="4"/></g></g></g><g clip-path="url(#92dae5e974)"><g clip-path="url(#b2262d330c)"><path fill="#ffffff" d="M 2060.726562 75.101562 L 2101.097656 82.867188 L 2092.03125 130.046875 L 2051.652344 122.28125 Z M 2060.726562 75.101562 " fill-opacity="1" fill-rule="nonzero"/></g></g><g clip-path="url(#c7b9497eb3)"><g clip-path="url(#187e7f3f53)"><g clip-path="url(#775055f884)"><path stroke-linecap="butt" transform="matrix(0.304729, 0.0586161, -0.058593, 0.304849, 2060.723577, 75.101244)" fill="none" stroke-linejoin="miter" d="M 0.00964068 -0.000808909 L 132.49178 -0.000691459 L 132.495736 154.621824 L 0.00123491 154.624083 Z M 0.00964068 -0.000808909 " stroke="#ffc000" stroke-width="30.348" stroke-opacity="1" stroke-miterlimit="4"/></g></g></g><path stroke-linecap="butt" transform="matrix(0.304729, 0.0586161, -0.058593, 0.304849, 2107.611703, 91.733687)" fill="none" stroke-linejoin="miter" d="M 0.00521097 2.000196 L 226.051664 2.000306 " stroke="#ffc000" stroke-width="4" stroke-opacity="1" stroke-miterlimit="4"/><path stroke-linecap="butt" transform="matrix(0.304729, 0.0586161, -0.058593, 0.304849, 2104.483039, 108.011339)" fill="none" stroke-linejoin="miter" d="M 0.00425685 1.99937 L 226.063072 1.997104 " stroke="#ffc000" stroke-width="4" stroke-opacity="1" stroke-miterlimit="4"/><path stroke-linecap="butt" transform="matrix(0.304729, 0.0586161, -0.058593, 0.304849, 2101.354592, 124.28899)" fill="none" stroke-linejoin="miter" d="M 0.00261918 1.998676 L 226.06381 2.008767 " stroke="#ffc000" stroke-width="4" stroke-opacity="1" stroke-miterlimit="4"/><path stroke-linecap="butt" transform="matrix(0.304729, 0.0586161, -0.058593, 0.304849, 2049.949594, 131.155327)" fill="none" stroke-linejoin="miter" d="M 0.0115354 1.999751 L 384.551143 2.008767 " stroke="#ffc000" stroke-width="4" stroke-opacity="1" stroke-miterlimit="4"/><path stroke-linecap="butt" transform="matrix(0.304729, 0.0586161, -0.058593, 0.304849, 2048.32141, 147.59644)" fill="none" stroke-linejoin="miter" d="M -0.00293382 2.003495 L 384.546659 1.997777 " stroke="#ffc000" stroke-width="4" stroke-opacity="1" stroke-miterlimit="4"/><path fill="#000000" d="M 165.917969 386.046875 C 148.808594 386.046875 133.726562 382.492188 120.671875 375.378906 C 107.617188 368.253906 97.402344 357.550781 90.03125 343.269531 C 82.65625 328.976562 78.972656 311.355469 78.972656 290.410156 C 78.972656 269.460938 82.65625 251.847656 90.03125 237.566406 C 97.402344 223.277344 107.617188 212.574219 120.671875 205.457031 C 133.726562 198.335938 148.808594 194.773438 165.917969 194.773438 C 183.804688 194.773438 198.996094 198.269531 211.496094 205.261719 C 224 212.257812 232.925781 222.917969 238.257812 237.253906 L 211.445312 253.652344 L 208.253906 253.523438 C 204.273438 243.859375 198.871094 236.929688 192.042969 232.738281 C 185.226562 228.542969 176.519531 226.4375 165.917969 226.4375 C 150.496094 226.4375 138.460938 231.550781 129.816406 241.773438 C 121.179688 251.984375 116.859375 268.199219 116.859375 290.410156 C 116.859375 312.535156 121.179688 328.710938 129.816406 338.933594 C 138.460938 349.144531 150.496094 354.25 165.917969 354.25 C 190.074219 354.25 204.871094 342.511719 210.300781 319.03125 L 213.472656 319.03125 L 240.546875 333.140625 C 235.464844 350.78125 226.777344 364.011719 214.488281 372.824219 C 202.195312 381.640625 186.007812 386.046875 165.917969 386.046875 Z M 165.917969 386.046875 " fill-opacity="1" fill-rule="nonzero"/><path fill="#000000" d="M 266.871094 383.378906 L 266.871094 243.097656 L 301.0625 243.097656 L 301.0625 263.964844 L 303.726562 264.472656 C 307.117188 256.671875 311.566406 250.949219 317.078125 247.304688 C 322.59375 243.648438 329.289062 241.820312 337.164062 241.820312 C 345.136719 241.820312 351.199219 243.179688 355.355469 245.898438 L 349.367188 276.285156 L 346.703125 276.792969 C 344.410156 275.871094 342.207031 275.191406 340.09375 274.765625 C 337.976562 274.339844 335.390625 274.125 332.339844 274.125 C 322.5 274.125 315 277.585938 309.828125 284.5 C 304.660156 291.40625 302.074219 302.496094 302.074219 317.753906 L 302.074219 383.378906 Z M 266.871094 383.378906 " fill-opacity="1" fill-rule="nonzero"/><path fill="#000000" d="M 495.195312 321.191406 L 405.058594 321.191406 C 406.070312 333.402344 409.542969 342.28125 415.476562 347.835938 C 421.40625 353.390625 429.503906 356.164062 439.769531 356.164062 C 447.820312 356.164062 454.339844 354.660156 459.335938 351.648438 C 464.339844 348.636719 468.371094 344.082031 471.425781 337.984375 L 474.089844 337.984375 L 497.484375 352.988281 C 492.902344 362.820312 485.992188 370.789062 476.757812 376.898438 C 467.519531 383 455.1875 386.046875 439.769531 386.046875 C 425.277344 386.046875 412.75 383.292969 402.195312 377.78125 C 391.648438 372.277344 383.511719 364.078125 377.789062 353.1875 C 372.0625 342.285156 369.199219 328.996094 369.199219 313.304688 C 369.199219 297.363281 372.210938 283.929688 378.230469 272.996094 C 384.25 262.058594 392.382812 253.894531 402.636719 248.515625 C 412.898438 243.125 424.425781 240.429688 437.21875 240.429688 C 457.054688 240.429688 472.246094 245.691406 482.792969 256.207031 C 493.347656 266.714844 498.628906 282.140625 498.628906 302.488281 C 498.628906 309.863281 498.371094 315.585938 497.859375 319.652344 Z M 464.929688 298.429688 C 464.589844 287.738281 462.109375 279.960938 457.488281 275.09375 C 452.875 270.214844 446.117188 267.777344 437.21875 267.777344 C 419.421875 267.777344 408.957031 277.996094 405.828125 298.429688 Z M 464.929688 298.429688 " fill-opacity="1" fill-rule="nonzero"/><path fill="#000000" d="M 563.71875 386.046875 C 554.730469 386.046875 546.933594 384.394531 540.324219 381.089844 C 533.71875 377.78125 528.628906 372.933594 525.0625 366.539062 C 521.503906 360.136719 519.730469 352.441406 519.730469 343.449219 C 519.730469 335.136719 521.503906 328.164062 525.0625 322.535156 C 528.628906 316.898438 534.132812 312.273438 541.585938 308.671875 C 549.046875 305.066406 558.792969 302.28125 570.835938 300.328125 C 579.21875 298.976562 585.59375 297.496094 589.957031 295.890625 C 594.328125 294.28125 597.277344 292.457031 598.808594 290.425781 C 600.332031 288.386719 601.097656 285.792969 601.097656 282.652344 C 601.097656 278.160156 599.527344 274.726562 596.386719 272.359375 C 593.246094 269.980469 588.03125 268.792969 580.75 268.792969 C 572.949219 268.792969 565.535156 270.535156 558.5 274.011719 C 551.464844 277.480469 545.363281 282.058594 540.195312 287.742188 L 537.660156 287.742188 L 522.902344 265.484375 C 530.023438 257.597656 538.710938 251.453125 548.964844 247.042969 C 559.222656 242.636719 570.414062 240.429688 582.53125 240.429688 C 601.089844 240.429688 614.519531 244.375 622.824219 252.261719 C 631.132812 260.140625 635.289062 271.328125 635.289062 285.828125 L 635.289062 346.753906 C 635.289062 353.03125 638.039062 356.164062 643.550781 356.164062 C 645.675781 356.164062 647.753906 355.785156 649.78125 355.019531 L 651.566406 355.527344 L 654.101562 380.074219 C 652.15625 381.351562 649.445312 382.394531 645.96875 383.199219 C 642.488281 383.992188 638.675781 384.394531 634.519531 384.394531 C 626.132812 384.394531 619.582031 382.785156 614.871094 379.566406 C 610.167969 376.351562 606.808594 371.300781 604.777344 364.429688 L 602.113281 364.183594 C 595.242188 378.761719 582.441406 386.046875 563.71875 386.046875 Z M 574.90625 359.730469 C 583.042969 359.730469 589.539062 357 594.40625 351.535156 C 599.28125 346.058594 601.71875 338.441406 601.71875 328.6875 L 601.71875 314.449219 L 599.316406 313.941406 C 597.1875 315.636719 594.40625 317.050781 590.972656 318.199219 C 587.546875 319.34375 582.613281 320.46875 576.167969 321.570312 C 568.542969 322.84375 563.054688 325.035156 559.710938 328.132812 C 556.363281 331.21875 554.6875 335.605469 554.6875 341.289062 C 554.6875 347.304688 556.464844 351.878906 560.023438 355.019531 C 563.589844 358.160156 568.546875 359.730469 574.90625 359.730469 Z M 574.90625 359.730469 " fill-opacity="1" fill-rule="nonzero"/><path fill="#000000" d="M 753.644531 349.929688 L 762.804688 376 C 758.984375 379.140625 754.191406 381.605469 748.425781 383.378906 C 742.667969 385.15625 736.144531 386.046875 728.863281 386.046875 C 713.6875 386.046875 702.164062 381.917969 694.28125 373.660156 C 686.394531 365.390625 682.453125 353.367188 682.453125 337.589844 L 682.453125 270.953125 L 661.085938 270.953125 L 661.085938 242.96875 L 682.453125 242.96875 L 682.453125 215.621094 L 717.671875 209.910156 L 717.671875 242.96875 L 757.457031 242.96875 L 757.457031 270.953125 L 717.671875 270.953125 L 717.671875 335.054688 C 717.671875 342.003906 719.113281 347.074219 721.992188 350.257812 C 724.871094 353.433594 729.0625 355.019531 734.570312 355.019531 C 740.839844 355.019531 746.308594 353.324219 750.980469 349.929688 Z M 753.644531 349.929688 " fill-opacity="1" fill-rule="nonzero"/><path fill="#000000" d="M 904.425781 321.191406 L 814.289062 321.191406 C 815.300781 333.402344 818.773438 342.28125 824.707031 347.835938 C 830.636719 353.390625 838.734375 356.164062 849 356.164062 C 857.050781 356.164062 863.570312 354.660156 868.566406 351.648438 C 873.570312 348.636719 877.601562 344.082031 880.65625 337.984375 L 883.320312 337.984375 L 906.714844 352.988281 C 902.132812 362.820312 895.222656 370.789062 885.988281 376.898438 C 876.75 383 864.417969 386.046875 849 386.046875 C 834.507812 386.046875 821.980469 383.292969 811.425781 377.78125 C 800.878906 372.277344 792.742188 364.078125 787.019531 353.1875 C 781.292969 342.285156 778.429688 328.996094 778.429688 313.304688 C 778.429688 297.363281 781.441406 283.929688 787.460938 272.996094 C 793.480469 262.058594 801.613281 253.894531 811.867188 248.515625 C 822.128906 243.125 833.65625 240.429688 846.449219 240.429688 C 866.285156 240.429688 881.476562 245.691406 892.023438 256.207031 C 902.578125 266.714844 907.859375 282.140625 907.859375 302.488281 C 907.859375 309.863281 907.601562 315.585938 907.089844 319.652344 Z M 874.160156 298.429688 C 873.820312 287.738281 871.339844 279.960938 866.71875 275.09375 C 862.105469 270.214844 855.347656 267.777344 846.449219 267.777344 C 828.652344 267.777344 818.183594 277.996094 815.058594 298.429688 Z M 874.160156 298.429688 " fill-opacity="1" fill-rule="nonzero"/><path fill="#000000" d="M 1003.84375 197.4375 L 1040.585938 197.4375 L 1040.585938 383.378906 L 1003.84375 383.378906 Z M 1003.84375 197.4375 " fill-opacity="1" fill-rule="nonzero"/><path fill="#000000" d="M 1085.078125 383.378906 L 1085.078125 243.097656 L 1118.890625 243.097656 L 1118.890625 263.703125 L 1121.558594 264.339844 C 1130.292969 248.398438 1144.449219 240.429688 1164.023438 240.429688 C 1180.207031 240.429688 1192.089844 244.839844 1199.671875 253.652344 C 1207.261719 262.46875 1211.054688 275.316406 1211.054688 292.195312 L 1211.054688 383.378906 L 1175.851562 383.378906 L 1175.851562 296.515625 C 1175.851562 287.1875 1173.988281 280.46875 1170.257812 276.351562 C 1166.527344 272.242188 1160.550781 270.183594 1152.328125 270.183594 C 1142.238281 270.183594 1134.375 273.453125 1128.738281 279.984375 C 1123.101562 286.511719 1120.28125 296.765625 1120.28125 310.75 L 1120.28125 383.378906 Z M 1085.078125 383.378906 " fill-opacity="1" fill-rule="nonzero"/><path fill="#000000" d="M 1325.855469 349.929688 L 1335.015625 376 C 1331.195312 379.140625 1326.402344 381.605469 1320.636719 383.378906 C 1314.878906 385.15625 1308.355469 386.046875 1301.070312 386.046875 C 1285.898438 386.046875 1274.375 381.917969 1266.488281 373.660156 C 1258.605469 365.390625 1254.664062 353.367188 1254.664062 337.589844 L 1254.664062 270.953125 L 1233.296875 270.953125 L 1233.296875 242.96875 L 1254.664062 242.96875 L 1254.664062 215.621094 L 1289.882812 209.910156 L 1289.882812 242.96875 L 1329.667969 242.96875 L 1329.667969 270.953125 L 1289.882812 270.953125 L 1289.882812 335.054688 C 1289.882812 342.003906 1291.324219 347.074219 1294.203125 350.257812 C 1297.082031 353.433594 1301.273438 355.019531 1306.78125 355.019531 C 1313.050781 355.019531 1318.519531 353.324219 1323.1875 349.929688 Z M 1325.855469 349.929688 " fill-opacity="1" fill-rule="nonzero"/><path fill="#000000" d="M 1358.28125 383.378906 L 1358.28125 243.097656 L 1392.46875 243.097656 L 1392.46875 263.964844 L 1395.136719 264.472656 C 1398.527344 256.671875 1402.976562 250.949219 1408.484375 247.304688 C 1414 243.648438 1420.695312 241.820312 1428.574219 241.820312 C 1436.542969 241.820312 1442.609375 243.179688 1446.765625 245.898438 L 1440.777344 276.285156 L 1438.109375 276.792969 C 1435.820312 275.871094 1433.617188 275.191406 1431.5 274.765625 C 1429.382812 274.339844 1426.796875 274.125 1423.746094 274.125 C 1413.90625 274.125 1406.40625 277.585938 1401.238281 284.5 C 1396.066406 291.40625 1393.484375 302.496094 1393.484375 317.753906 L 1393.484375 383.378906 Z M 1358.28125 383.378906 " fill-opacity="1" fill-rule="nonzero"/><path fill="#000000" d="M 1529.527344 386.046875 C 1515.792969 386.046875 1503.738281 383.234375 1493.359375 377.601562 C 1482.972656 371.964844 1474.921875 363.691406 1469.195312 352.792969 C 1463.46875 341.894531 1460.609375 328.734375 1460.609375 313.304688 C 1460.609375 297.878906 1463.46875 284.695312 1469.195312 273.75 C 1474.921875 262.808594 1482.972656 254.519531 1493.359375 248.890625 C 1503.738281 243.253906 1515.792969 240.429688 1529.527344 240.429688 C 1543.253906 240.429688 1555.3125 243.253906 1565.695312 248.890625 C 1576.074219 254.519531 1584.148438 262.808594 1589.90625 273.75 C 1595.664062 284.695312 1598.542969 297.878906 1598.542969 313.304688 C 1598.542969 328.734375 1595.664062 341.894531 1589.90625 352.792969 C 1584.148438 363.691406 1576.074219 371.964844 1565.695312 377.601562 C 1555.3125 383.234375 1543.253906 386.046875 1529.527344 386.046875 Z M 1529.527344 356.164062 C 1551.304688 356.164062 1562.195312 341.878906 1562.195312 313.304688 C 1562.195312 298.46875 1559.398438 287.59375 1553.804688 280.6875 C 1548.207031 273.773438 1540.113281 270.3125 1529.527344 270.3125 C 1507.738281 270.3125 1496.84375 284.644531 1496.84375 313.304688 C 1496.84375 341.878906 1507.738281 356.164062 1529.527344 356.164062 Z M 1529.527344 356.164062 " fill-opacity="1" fill-rule="nonzero"/><path fill="#000000" d="M 1773.980469 386.046875 C 1756.871094 386.046875 1741.789062 382.492188 1728.734375 375.378906 C 1715.679688 368.253906 1705.464844 357.550781 1698.09375 343.269531 C 1690.722656 328.976562 1687.035156 311.355469 1687.035156 290.410156 C 1687.035156 269.460938 1690.722656 251.847656 1698.09375 237.566406 C 1705.464844 223.277344 1715.679688 212.574219 1728.734375 205.457031 C 1741.789062 198.335938 1756.871094 194.773438 1773.980469 194.773438 C 1791.867188 194.773438 1807.058594 198.269531 1819.558594 205.261719 C 1832.0625 212.257812 1840.988281 222.917969 1846.320312 237.253906 L 1819.507812 253.652344 L 1816.320312 253.523438 C 1812.335938 243.859375 1806.933594 236.929688 1800.105469 232.738281 C 1793.289062 228.542969 1784.582031 226.4375 1773.980469 226.4375 C 1758.558594 226.4375 1746.523438 231.550781 1737.878906 241.773438 C 1729.242188 251.984375 1724.921875 268.199219 1724.921875 290.410156 C 1724.921875 312.535156 1729.242188 328.710938 1737.878906 338.933594 C 1746.523438 349.144531 1758.558594 354.25 1773.980469 354.25 C 1798.136719 354.25 1812.933594 342.511719 1818.363281 319.03125 L 1821.535156 319.03125 L 1848.609375 333.140625 C 1843.527344 350.78125 1834.839844 364.011719 1822.550781 372.824219 C 1810.257812 381.640625 1794.070312 386.046875 1773.980469 386.046875 Z M 1773.980469 386.046875 " fill-opacity="1" fill-rule="nonzero"/><path fill="#000000" d="M 1909.386719 386.046875 C 1900.398438 386.046875 1892.601562 384.394531 1885.992188 381.089844 C 1879.382812 377.78125 1874.296875 372.933594 1870.730469 366.539062 C 1867.171875 360.136719 1865.398438 352.441406 1865.398438 343.449219 C 1865.398438 335.136719 1867.171875 328.164062 1870.730469 322.535156 C 1874.296875 316.898438 1879.800781 312.273438 1887.253906 308.671875 C 1894.710938 305.066406 1904.460938 302.28125 1916.503906 300.328125 C 1924.886719 298.976562 1931.261719 297.496094 1935.625 295.890625 C 1939.996094 294.28125 1942.945312 292.457031 1944.476562 290.425781 C 1946 288.386719 1946.765625 285.792969 1946.765625 282.652344 C 1946.765625 278.160156 1945.195312 274.726562 1942.054688 272.359375 C 1938.914062 269.980469 1933.699219 268.792969 1926.414062 268.792969 C 1918.617188 268.792969 1911.203125 270.535156 1904.167969 274.011719 C 1897.132812 277.480469 1891.03125 282.058594 1885.863281 287.742188 L 1883.328125 287.742188 L 1868.570312 265.484375 C 1875.691406 257.597656 1884.378906 251.453125 1894.628906 247.042969 C 1904.890625 242.636719 1916.082031 240.429688 1928.199219 240.429688 C 1946.757812 240.429688 1960.1875 244.375 1968.488281 252.261719 C 1976.800781 260.140625 1980.957031 271.328125 1980.957031 285.828125 L 1980.957031 346.753906 C 1980.957031 353.03125 1983.707031 356.164062 1989.214844 356.164062 C 1991.34375 356.164062 1993.421875 355.785156 1995.449219 355.019531 L 1997.230469 355.527344 L 1999.769531 380.074219 C 1997.824219 381.351562 1995.113281 382.394531 1991.636719 383.199219 C 1988.15625 383.992188 1984.339844 384.394531 1980.1875 384.394531 C 1971.796875 384.394531 1965.25 382.785156 1960.539062 379.566406 C 1955.835938 376.351562 1952.476562 371.300781 1950.445312 364.429688 L 1947.78125 364.183594 C 1940.910156 378.761719 1928.109375 386.046875 1909.386719 386.046875 Z M 1920.574219 359.730469 C 1928.710938 359.730469 1935.207031 357 1940.074219 351.535156 C 1944.949219 346.058594 1947.386719 338.441406 1947.386719 328.6875 L 1947.386719 314.449219 L 1944.984375 313.941406 C 1942.855469 315.636719 1940.074219 317.050781 1936.640625 318.199219 C 1933.210938 319.34375 1928.28125 320.46875 1921.835938 321.570312 C 1914.210938 322.84375 1908.722656 325.035156 1905.378906 328.132812 C 1902.027344 331.21875 1900.355469 335.605469 1900.355469 341.289062 C 1900.355469 347.304688 1902.132812 351.878906 1905.6875 355.019531 C 1909.253906 358.160156 1914.214844 359.730469 1920.574219 359.730469 Z M 1920.574219 359.730469 " fill-opacity="1" fill-rule="nonzero"/><path fill="#000000" d="M 2022.785156 383.378906 L 2022.785156 243.097656 L 2056.976562 243.097656 L 2056.976562 263.964844 L 2059.640625 264.472656 C 2063.03125 256.671875 2067.480469 250.949219 2072.992188 247.304688 C 2078.507812 243.648438 2085.203125 241.820312 2093.078125 241.820312 C 2101.050781 241.820312 2107.113281 243.179688 2111.269531 245.898438 L 2105.28125 276.285156 L 2102.617188 276.792969 C 2100.328125 275.871094 2098.121094 275.191406 2096.007812 274.765625 C 2093.890625 274.339844 2091.304688 274.125 2088.253906 274.125 C 2078.414062 274.125 2070.914062 277.585938 2065.742188 284.5 C 2060.574219 291.40625 2057.988281 302.496094 2057.988281 317.753906 L 2057.988281 383.378906 Z M 2022.785156 383.378906 " fill-opacity="1" fill-rule="nonzero"/><path fill="#000000" d="M 2181.8125 386.046875 C 2170.710938 386.046875 2160.898438 383.359375 2152.382812 377.980469 C 2143.863281 372.589844 2137.191406 364.453125 2132.359375 353.5625 C 2127.527344 342.664062 2125.113281 329.242188 2125.113281 313.304688 C 2125.113281 297.277344 2127.59375 283.824219 2132.558594 272.933594 C 2137.519531 262.03125 2144.382812 253.894531 2153.152344 248.515625 C 2161.921875 243.125 2172.066406 240.429688 2183.597656 240.429688 C 2192.332031 240.429688 2199.894531 241.9375 2206.285156 244.949219 C 2212.6875 247.957031 2218.089844 252.640625 2222.496094 258.988281 L 2225.179688 258.367188 L 2225.179688 186.753906 L 2260.382812 186.753906 L 2260.382812 383.378906 L 2225.179688 383.378906 L 2225.179688 365.199219 L 2222.496094 364.691406 C 2218.605469 371.300781 2213.261719 376.519531 2206.480469 380.335938 C 2199.699219 384.140625 2191.472656 386.046875 2181.8125 386.046875 Z M 2193.265625 356.164062 C 2203.175781 356.164062 2211.011719 352.625 2216.773438 345.542969 C 2222.539062 338.464844 2225.425781 327.71875 2225.425781 313.304688 C 2225.425781 298.894531 2222.539062 288.125 2216.773438 281 C 2211.011719 273.875 2203.175781 270.3125 2193.265625 270.3125 C 2182.925781 270.3125 2175.015625 273.773438 2169.542969 280.6875 C 2164.082031 287.59375 2161.347656 298.46875 2161.347656 313.304688 C 2161.347656 328.058594 2164.082031 338.890625 2169.542969 345.804688 C 2175.015625 352.710938 2182.925781 356.164062 2193.265625 356.164062 Z M 2193.265625 356.164062 " fill-opacity="1" fill-rule="nonzero"/><path fill="#000000" d="M 2346.199219 386.046875 C 2336.621094 386.046875 2327.847656 384.921875 2319.875 382.675781 C 2311.914062 380.429688 2305.113281 377.335938 2299.476562 373.398438 C 2293.835938 369.460938 2289.667969 364.945312 2286.964844 359.847656 L 2306.527344 338.734375 L 2309.210938 338.734375 C 2313.863281 345.011719 2319.375 349.714844 2325.734375 352.859375 C 2332.089844 355.992188 2339 357.554688 2346.460938 357.554688 C 2353.316406 357.554688 2358.484375 356.328125 2361.949219 353.875 C 2365.425781 351.417969 2367.167969 347.898438 2367.167969 343.316406 C 2367.167969 339.761719 2365.917969 336.78125 2363.421875 334.367188 C 2360.925781 331.945312 2356.878906 330.054688 2351.285156 328.6875 L 2332.71875 324.234375 C 2318.820312 320.929688 2308.675781 315.871094 2302.273438 309.050781 C 2295.871094 302.222656 2292.671875 293.546875 2292.671875 283.027344 C 2292.671875 274.300781 2294.898438 266.722656 2299.347656 260.28125 C 2303.796875 253.832031 2310.066406 248.914062 2318.160156 245.519531 C 2326.261719 242.128906 2335.695312 240.429688 2346.460938 240.429688 C 2359.089844 240.429688 2369.550781 242.253906 2377.851562 245.898438 C 2386.160156 249.542969 2392.644531 254.417969 2397.300781 260.527344 L 2378.488281 280.867188 L 2375.953125 280.867188 C 2372.046875 276.460938 2367.660156 273.242188 2362.785156 271.214844 C 2357.910156 269.175781 2352.46875 268.152344 2346.460938 268.152344 C 2332.554688 268.152344 2325.601562 272.480469 2325.601562 281.128906 C 2325.601562 284.777344 2326.894531 287.742188 2329.480469 290.035156 C 2332.0625 292.324219 2336.621094 294.191406 2343.15625 295.628906 L 2360.429688 299.441406 C 2374.667969 302.5 2385.074219 307.398438 2391.640625 314.140625 C 2398.21875 320.875 2401.507812 329.921875 2401.507812 341.289062 C 2401.507812 350.191406 2399.296875 358.039062 2394.882812 364.820312 C 2390.472656 371.597656 2384.117188 376.828125 2375.808594 380.515625 C 2367.503906 384.203125 2357.636719 386.046875 2346.199219 386.046875 Z M 2346.199219 386.046875 " fill-opacity="1" fill-rule="nonzero"/></svg>